REM DIRINDEX 1\2,1\3,1\4,1\5
REM DIRNAME cjc004,folder01,folder02,folder03,folder04
TITLE ""
FILE "1Q_t_1079-1088.mp3" MP3
  TRACK 01 AUDIO
    TITLE "3:cjc004_4141"
    INDEX 01 00:00:00
  TRACK 02 AUDIO
    TITLE "0:"
    INDEX 01 00:00:60
  TRACK 03 AUDIO
    TITLE "4:cjc004_4142"
    INDEX 01 00:01:17
  TRACK 04 AUDIO
    TITLE "0:"
    INDEX 01 00:02:26
  TRACK 05 AUDIO
    TITLE "5:cjc004_4143"
    INDEX 01 00:02:51
  TRACK 06 AUDIO
    TITLE "0:"
    INDEX 01 00:06:57
  TRACK 07 AUDIO
    TITLE "3:cjc004_4144"
    INDEX 01 00:07:45
  TRACK 08 AUDIO
    TITLE "0:"
    INDEX 01 00:09:02
  TRACK 09 AUDIO
    TITLE "4:cjc004_4145"
    INDEX 01 00:09:28
  TRACK 10 AUDIO
    TITLE "0:"
    INDEX 01 00:10:35
  TRACK 11 AUDIO
    TITLE "5:cjc004_4146"
    INDEX 01 00:10:61
  TRACK 12 AUDIO
    TITLE "0:"
    INDEX 01 00:15:13
  TRACK 13 AUDIO
    TITLE "3:cjc004_4147"
    INDEX 01 00:15:64
  TRACK 14 AUDIO
    TITLE "0:"
    INDEX 01 00:17:25
  TRACK 15 AUDIO
    TITLE "4:cjc004_4148"
    INDEX 01 00:17:53
  TRACK 16 AUDIO
    TITLE "0:"
    INDEX 01 00:19:07
  TRACK 17 AUDIO
    TITLE "5:cjc004_4149"
    INDEX 01 00:19:32
  TRACK 18 AUDIO
    TITLE "0:"
    INDEX 01 00:24:57
  TRACK 19 AUDIO
    TITLE "3:cjc004_4150"
    INDEX 01 00:25:35
  TRACK 20 AUDIO
    TITLE "0:"
    INDEX 01 00:26:44
  TRACK 21 AUDIO
    TITLE "4:cjc004_4151"
    INDEX 01 00:26:73
  TRACK 22 AUDIO
    TITLE "0:"
    INDEX 01 00:28:04
  TRACK 23 AUDIO
    TITLE "5:cjc004_4152"
    INDEX 01 00:28:31
  TRACK 24 AUDIO
    TITLE "0:"
    INDEX 01 00:33:56
  TRACK 25 AUDIO
    TITLE "3:cjc004_4153"
    INDEX 01 00:34:34
  TRACK 26 AUDIO
    TITLE "0:"
    INDEX 01 00:35:41
  TRACK 27 AUDIO
    TITLE "4:cjc004_4154"
    INDEX 01 00:35:66
  TRACK 28 AUDIO
    TITLE "0:"
    INDEX 01 00:37:08
  TRACK 29 AUDIO
    TITLE "5:cjc004_4155"
    INDEX 01 00:37:32
  TRACK 30 AUDIO
    TITLE "0:"
    INDEX 01 00:42:31
  TRACK 31 AUDIO
    TITLE "3:cjc004_4156"
    INDEX 01 00:43:07
  TRACK 32 AUDIO
    TITLE "0:"
    INDEX 01 00:44:24
  TRACK 33 AUDIO
    TITLE "4:cjc004_4157"
    INDEX 01 00:44:52
  TRACK 34 AUDIO
    TITLE "0:"
    INDEX 01 00:45:61
  TRACK 35 AUDIO
    TITLE "5:cjc004_4158"
    INDEX 01 00:46:11
  TRACK 36 AUDIO
    TITLE "0:"
    INDEX 01 00:51:07
  TRACK 37 AUDIO
    TITLE "3:cjc004_4159"
    INDEX 01 00:51:60
  TRACK 38 AUDIO
    TITLE "0:"
    INDEX 01 00:53:17
  TRACK 39 AUDIO
    TITLE "4:cjc004_4160"
    INDEX 01 00:53:45
  TRACK 40 AUDIO
    TITLE "0:"
    INDEX 01 00:55:03
  TRACK 41 AUDIO
    TITLE "5:cjc004_4161"
    INDEX 01 00:55:30
  TRACK 42 AUDIO
    TITLE "0:"
    INDEX 01 01:01:01
  TRACK 43 AUDIO
    TITLE "3:cjc004_4162"
    INDEX 01 01:01:54
  TRACK 44 AUDIO
    TITLE "0:"
    INDEX 01 01:02:71
  TRACK 45 AUDIO
    TITLE "4:cjc004_4163"
    INDEX 01 01:03:26
  TRACK 46 AUDIO
    TITLE "0:"
    INDEX 01 01:04:39
  TRACK 47 AUDIO
    TITLE "5:cjc004_4164"
    INDEX 01 01:04:66
  TRACK 48 AUDIO
    TITLE "0:"
    INDEX 01 01:09:52
  TRACK 49 AUDIO
    TITLE "3:cjc004_4165"
    INDEX 01 01:10:31
  TRACK 50 AUDIO
    TITLE "0:"
    INDEX 01 01:11:47
  TRACK 51 AUDIO
    TITLE "4:cjc004_4166"
    INDEX 01 01:11:74
  TRACK 52 AUDIO
    TITLE "0:"
    INDEX 01 01:13:16
  TRACK 53 AUDIO
    TITLE "5:cjc004_4167"
    INDEX 01 01:13:36
  TRACK 54 AUDIO
    TITLE "0:"
    INDEX 01 01:18:23
  TRACK 55 AUDIO
    TITLE "3:cjc004_4168"
    INDEX 01 01:18:70
  TRACK 56 AUDIO
    TITLE "0:"
    INDEX 01 01:20:24
  TRACK 57 AUDIO
    TITLE "4:cjc004_4169"
    INDEX 01 01:20:44
  TRACK 58 AUDIO
    TITLE "0:"
    INDEX 01 01:21:47
  TRACK 59 AUDIO
    TITLE "5:cjc004_4170"
    INDEX 01 01:21:74
  TRACK 60 AUDIO
    TITLE "0:"
    INDEX 01 01:26:34
